<?xml version="1.0" encoding="UTF-8" standalone="no"?>
<!-- Created with Inkscape (http://www.inkscape.org/) -->

<svg
   xmlns:dc="http://purl.org/dc/elements/1.1/"
   xmlns:cc="http://creativecommons.org/ns#"
   xmlns:rdf="http://www.w3.org/1999/02/22-rdf-syntax-ns#"
   xmlns:svg="http://www.w3.org/2000/svg"
   xmlns="http://www.w3.org/2000/svg"
   xmlns:sodipodi="http://sodipodi.sourceforge.net/DTD/sodipodi-0.dtd"
   xmlns:inkscape="http://www.inkscape.org/namespaces/inkscape"
   width="32"
   height="32"
   viewBox="0 0 8.4666665 8.4666669"
   version="1.1"
   id="svg8"
   inkscape:version="0.92.4 (5da689c313, 2019-01-14)"
   sodipodi:docname="ace_channel.svg">
  <defs
     id="defs2" />
  <sodipodi:namedview
     id="base"
     pagecolor="#ffffff"
     bordercolor="#666666"
     borderopacity="1.0"
     inkscape:pageopacity="0.0"
     inkscape:pageshadow="2"
     inkscape:zoom="5.6"
     inkscape:cx="14.891588"
     inkscape:cy="-16.778809"
     inkscape:document-units="mm"
     inkscape:current-layer="layer1"
     showgrid="false"
     units="px"
     inkscape:window-width="1920"
     inkscape:window-height="1001"
     inkscape:window-x="1891"
     inkscape:window-y="1791"
     inkscape:window-maximized="1" />
  <metadata
     id="metadata5">
    <rdf:RDF>
      <cc:Work
         rdf:about="">
        <dc:format>image/svg+xml</dc:format>
        <dc:type
           rdf:resource="http://purl.org/dc/dcmitype/StillImage" />
        <dc:title></dc:title>
      </cc:Work>
    </rdf:RDF>
  </metadata>
  <g
     inkscape:label="Layer 1"
     inkscape:groupmode="layer"
     id="layer1"
     transform="translate(0,-288.53332)">
    <g
       id="g4622"
       transform="matrix(0.0094114,0,0,0.0094114,0.09105914,288.63752)"
       style="stroke:#333333;stroke-opacity:1;fill:#333333;fill-opacity:1">
      <g
         id="g4565"
         style="stroke:#333333;stroke-opacity:1;fill:#333333;fill-opacity:1">
	<g
   id="g4563"
   style="stroke:#333333;stroke-opacity:1;fill:#333333;fill-opacity:1">
		<path
   id="path4561"
   d="M 437.019,74.981 C 388.666,26.629 324.379,0 256,0 187.619,0 123.332,26.629 74.979,74.981 26.628,123.333 0,187.62 0,256 0,324.38 26.628,388.667 74.979,437.02 123.332,485.371 187.619,512 256,512 c 8.283,0 15,-6.716 15,-15 0,-8.284 -6.717,-15 -15,-15 C 131.383,482 30,380.617 30,256 30,131.383 131.383,30 256,30 380.616,30 482,131.383 482,256 v 60.25 c 0,24.951 -20.299,45.25 -45.25,45.25 -24.951,0 -45.25,-20.299 -45.25,-45.25 V 256 c 0,-74.715 -60.785,-135.5 -135.5,-135.5 -74.715,0 -135.5,60.785 -135.5,135.5 0,74.715 60.785,135.5 135.5,135.5 44.316,0 83.73,-21.386 108.468,-54.378 9.072,31.368 38.031,54.378 72.282,54.378 41.493,0 75.25,-33.757 75.25,-75.25 V 256 C 512,187.62 485.371,123.333 437.019,74.981 Z M 256,361.5 c -58.174,0 -105.5,-47.327 -105.5,-105.5 0,-58.173 47.326,-105.5 105.5,-105.5 58.173,0 105.5,47.327 105.5,105.5 0,58.173 -47.327,105.5 -105.5,105.5 z"
   inkscape:connector-curvature="0"
   style="stroke:#333333;stroke-opacity:1;fill:#333333;fill-opacity:1" />

	</g>

</g>
      <g
         id="g4567"
         style="stroke:#333333;stroke-opacity:1;fill:#333333;fill-opacity:1">
</g>
      <g
         id="g4569"
         style="stroke:#333333;stroke-opacity:1;fill:#333333;fill-opacity:1">
</g>
      <g
         id="g4571"
         style="stroke:#333333;stroke-opacity:1;fill:#333333;fill-opacity:1">
</g>
      <g
         id="g4573"
         style="stroke:#333333;stroke-opacity:1;fill:#333333;fill-opacity:1">
</g>
      <g
         id="g4575"
         style="stroke:#333333;stroke-opacity:1;fill:#333333;fill-opacity:1">
</g>
      <g
         id="g4577"
         style="stroke:#333333;stroke-opacity:1;fill:#333333;fill-opacity:1">
</g>
      <g
         id="g4579"
         style="stroke:#333333;stroke-opacity:1;fill:#333333;fill-opacity:1">
</g>
      <g
         id="g4581"
         style="stroke:#333333;stroke-opacity:1;fill:#333333;fill-opacity:1">
</g>
      <g
         id="g4583"
         style="stroke:#333333;stroke-opacity:1;fill:#333333;fill-opacity:1">
</g>
      <g
         id="g4585"
         style="stroke:#333333;stroke-opacity:1;fill:#333333;fill-opacity:1">
</g>
      <g
         id="g4587"
         style="stroke:#333333;stroke-opacity:1;fill:#333333;fill-opacity:1">
</g>
      <g
         id="g4589"
         style="stroke:#333333;stroke-opacity:1;fill:#333333;fill-opacity:1">
</g>
      <g
         id="g4591"
         style="stroke:#333333;stroke-opacity:1;fill:#333333;fill-opacity:1">
</g>
      <g
         id="g4593"
         style="stroke:#333333;stroke-opacity:1;fill:#333333;fill-opacity:1">
</g>
      <g
         id="g4595"
         style="stroke:#333333;stroke-opacity:1;fill:#333333;fill-opacity:1">
</g>
    </g>
    <path
       id="path4634"
       d="m 6.1550646,292.25477 c -1.3047466,0 -2.3624781,1.05772 -2.3624781,2.36247 0,1.30475 1.0577315,2.36248 2.3624781,2.36248 1.3047452,0 2.3624768,-1.05773 2.3624768,-2.36248 -0.00148,-1.30413 -1.0583462,-2.36102 -2.3624768,-2.36247 z m 2.0432114,3.19011 -0.6718671,0.11592 c 0.076903,-0.28205 0.1184318,-0.57255 0.1236216,-0.86482 h 0.7080512 c -0.00889,0.25709 -0.062984,0.5106 -0.1598057,0.74888 z M 3.9520463,294.696 h 0.7080511 c 0.00516,0.29226 0.046722,0.58277 0.1236224,0.86481 l -0.6718679,-0.11592 c -0.096821,-0.23828 -0.1509236,-0.4918 -0.1598056,-0.74888 z m 0.1598056,-0.90639 0.6718679,-0.11592 c -0.076903,0.28204 -0.1184318,0.57255 -0.1236224,0.86481 H 3.9520463 c 0.00889,-0.25708 0.062984,-0.51059 0.1598056,-0.74888 z m 2.1219617,-0.27043 c 0.2829667,0.004 0.5652407,0.0294 0.8442091,0.0772 l 0.2779673,0.0479 c 0.085401,0.29063 0.1313513,0.5914 0.1366194,0.89428 H 6.2338136 Z m 0.8710479,-0.0781 c -0.2878111,-0.0491 -0.5790835,-0.0757 -0.8710479,-0.0794 v -0.94498 c 0.4514626,0.0433 0.8436319,0.45673 1.0658833,1.0583 z m -1.0285469,-0.0794 c -0.2919643,0.004 -0.5831592,0.0301 -0.8709711,0.0794 l -0.1949125,0.0337 c 0.2222513,-0.60172 0.6144218,-1.01523 1.0658836,-1.05842 z m -0.8441314,0.23459 c 0.2789288,-0.0477 0.5611656,-0.0735 0.8441314,-0.0772 v 1.01931 H 4.8175185 c 0.00525,-0.30288 0.051222,-0.60366 0.1366194,-0.89427 z M 4.8175185,294.696 h 1.2587961 v 1.01932 c -0.2829658,-0.004 -0.5652411,-0.0294 -0.8442084,-0.0772 l -0.2779683,-0.0479 c -0.085401,-0.29062 -0.1313513,-0.5914 -0.1366194,-0.89427 z m 0.387748,1.09746 c 0.2878118,0.0492 0.5790453,0.0759 0.8710481,0.0797 v 0.945 C 5.6248528,296.77466 5.2326823,296.36137 5.010431,295.7598 Z m 1.0285471,0.0797 c 0.2919644,-0.004 0.5831597,-0.0305 0.8709707,-0.0797 l 0.1949126,-0.0337 c -0.2222514,0.60174 -0.6144207,1.01525 -1.0658833,1.05842 z m 0.844132,-0.23502 c -0.2789298,0.0478 -0.5611653,0.0736 -0.844132,0.0772 v -1.01931 h 1.2587958 c -0.00525,0.30287 -0.051214,0.60364 -0.1366194,0.89427 z m 0.5720849,-1.09972 c -0.00516,-0.29228 -0.046722,-0.58278 -0.1236216,-0.86483 l 0.6718671,0.11593 c 0.096822,0.23828 0.1509236,0.49181 0.1598057,0.74889 z m 0.4685743,-0.92246 -0.6440292,-0.11111 c -0.1157776,-0.37769 -0.332377,-0.71669 -0.626533,-0.98044 0.5500527,0.18358 1.0062055,0.57544 1.2705622,1.09158 z m -2.6565186,-1.09157 c -0.2941562,0.26375 -0.5107549,0.60274 -0.6265331,0.98044 l -0.6440291,0.11111 c 0.2643558,-0.51614 0.7205094,-0.908 1.2705622,-1.09158 z m -1.2705622,3.09399 0.6440291,0.11111 c 0.1157776,0.37771 0.3323769,0.71671 0.6265331,0.98045 -0.5500528,-0.18357 -1.0062064,-0.57544 -1.2705622,-1.09157 z m 2.6565186,1.09157 c 0.294156,-0.26374 0.5107548,-0.60273 0.626533,-0.98044 l 0.6440292,-0.11111 c -0.2643567,0.51613 -0.7205095,0.908 -1.2705622,1.09156 z m 0,0"
       inkscape:connector-curvature="0"
       style="stroke-width:0.00984365;stroke:#333333;stroke-opacity:1;fill:#333333;fill-opacity:1" />
  </g>
</svg>
